HIERARCHY
ROOT hip
{
  OFFSET 0 0 0
  CHANNELS 6 Xposition Yposition Zposition Zrotation Yrotation Xrotation
  JOINT abdomen
  {
    OFFSET 0 20.6881 -0.73152
    CHANNELS 3 Zrotation Xrotation Yrotation
    JOINT chest
    {
      OFFSET 0 11.7043 -0.48768
      CHANNELS 3 Zrotation Xrotation Yrotation
      JOINT neck
      {
        OFFSET 0 22.1894 -2.19456
        CHANNELS 3 Zrotation Xrotation Yrotation
        JOINT head
        {
          OFFSET -0.24384 7.07133 1.2192
          CHANNELS 3 Zrotation Xrotation Yrotation
          JOINT leftEye
          {
            OFFSET 4.14528 8.04674 8.04672
            CHANNELS 3 Zrotation Xrotation Yrotation
            End Site
            {
              OFFSET 1 0 0
            }
          }
          JOINT rightEye
          {
            OFFSET -3.6576 8.04674 8.04672
            CHANNELS 3 Zrotation Xrotation Yrotation
            End Site
            {
              OFFSET 1 0 0
            }
          }
        }
      }
      JOINT rCollar
      {
        OFFSET -2.68224 19.2634 -4.8768
        CHANNELS 3 Zrotation Xrotation Yrotation
        JOINT rShldr
        {
          OFFSET -8.77824 -1.95073 1.46304
          CHANNELS 3 Zrotation Xrotation Yrotation
          JOINT rForeArm
          {
            OFFSET -28.1742 -1.7115 0.48768
            CHANNELS 3 Zrotation Xrotation Yrotation
            JOINT rHand
            {
              OFFSET -22.5879 0.773209 7.07136
              CHANNELS 3 Zrotation Xrotation Yrotation
              JOINT rThumb1
              {
                OFFSET -1.2192 -0.487915 3.41376
                CHANNELS 3 Zrotation Xrotation Yrotation
                JOINT rThumb2
                {
                  OFFSET -3.37035 -0.52449 3.41376
                  CHANNELS 3 Zrotation Xrotation Yrotation
                  End Site
                  {
                    OFFSET -1.78271 -1.18214 1.43049
                  }
                }
              }
              JOINT rIndex1
              {
                OFFSET -7.75947 0.938293 5.60832
                CHANNELS 3 Zrotation Xrotation Yrotation
                JOINT rIndex2
                {
                  OFFSET -2.54057 -0.884171 1.56538
                  CHANNELS 3 Zrotation Xrotation Yrotation
                  End Site
                  {
                    OFFSET -1.62519 -0.234802 1.16502
                  }
                }
              }
              JOINT rMid1
              {
                OFFSET -8.24714 1.18213 3.41376
                CHANNELS 3 Zrotation Xrotation Yrotation
                JOINT rMid2
                {
                  OFFSET -3.10165 -0.590103 1.0647
                  CHANNELS 3 Zrotation Xrotation Yrotation
                  End Site
                  {
                    OFFSET -2.48547 -0.328903 0.83742
                  }
                }
              }
              JOINT rRing1
              {
                OFFSET -8.82822 0.546677 1.51678
                CHANNELS 3 Zrotation Xrotation Yrotation
                JOINT rRing2
                {
                  OFFSET -2.60934 -0.819778 -0.0198488
                  CHANNELS 3 Zrotation Xrotation Yrotation
                  End Site
                  {
                    OFFSET -2.33842 -0.294052 0.168128
                  }
                }
              }
              JOINT rPinky1
              {
                OFFSET -8.27202 -0.0477905 -0.4584
                CHANNELS 3 Zrotation Xrotation Yrotation
                JOINT rPinky2
                {
                  OFFSET -1.82734 -0.647385 -0.700984
                  CHANNELS 3 Zrotation Xrotation Yrotation
                  End Site
                  {
                    OFFSET -1.69225 -0.51767 -0.607171
                  }
                }
              }
            }
          }
        }
      }
      JOINT lCollar
      {
        OFFSET 2.68224 19.2634 -4.8768
        CHANNELS 3 Zrotation Xrotation Yrotation
        JOINT lShldr
        {
          OFFSET 8.77824 -1.95073 1.46304
          CHANNELS 3 Zrotation Xrotation Yrotation
          JOINT lForeArm
          {
            OFFSET 28.1742 -1.7115 0.48768
            CHANNELS 3 Zrotation Xrotation Yrotation
            JOINT lHand
            {
              OFFSET 22.5879 0.773209 7.07136
              CHANNELS 3 Zrotation Xrotation Yrotation
              JOINT lThumb1
              {
                OFFSET 1.2192 -0.487915 3.41376
                CHANNELS 3 Zrotation Xrotation Yrotation
                JOINT lThumb2
                {
                  OFFSET 3.37035 -0.52449 3.41376
                  CHANNELS 3 Zrotation Xrotation Yrotation
                  End Site
                  {
                    OFFSET 1.78271 -1.18214 1.43049
                  }
                }
              }
              JOINT lIndex1
              {
                OFFSET 7.75947 0.938293 5.60832
                CHANNELS 3 Zrotation Xrotation Yrotation
                JOINT lIndex2
                {
                  OFFSET 2.54057 -0.884171 1.56538
                  CHANNELS 3 Zrotation Xrotation Yrotation
                  End Site
                  {
                    OFFSET 1.62519 -0.234802 1.16502
                  }
                }
              }
              JOINT lMid1
              {
                OFFSET 8.24714 1.18213 3.41376
                CHANNELS 3 Zrotation Xrotation Yrotation
                JOINT lMid2
                {
                  OFFSET 3.10165 -0.590103 1.0647
                  CHANNELS 3 Zrotation Xrotation Yrotation
                  End Site
                  {
                    OFFSET 2.48547 -0.328903 0.83742
                  }
                }
              }
              JOINT lRing1
              {
                OFFSET 8.82822 0.546677 1.51678
                CHANNELS 3 Zrotation Xrotation Yrotation
                JOINT lRing2
                {
                  OFFSET 2.60934 -0.819778 -0.0198488
                  CHANNELS 3 Zrotation Xrotation Yrotation
                  End Site
                  {
                    OFFSET 2.33842 -0.294052 0.168128
                  }
                }
              }
              JOINT lPinky1
              {
                OFFSET 8.27202 -0.0477905 -0.4584
                CHANNELS 3 Zrotation Xrotation Yrotation
                JOINT lPinky2
                {
                  OFFSET 1.82734 -0.647385 -0.700984
                  CHANNELS 3 Zrotation Xrotation Yrotation
                  End Site
                  {
                    OFFSET 1.69225 -0.51767 -0.607171
                  }
                }
              }
            }
          }
        }
      }
    }
  }
  JOINT rButtock
  {
    OFFSET -8.77824 4.35084 1.2192
    CHANNELS 3 Zrotation Xrotation Yrotation
    JOINT rThigh
    {
      OFFSET 0 -1.70687 -2.19456
      CHANNELS 3 Zrotation Xrotation Yrotation
      JOINT rShin
      {
        OFFSET 0 -36.8199 0.73152
        CHANNELS 3 Zrotation Xrotation Yrotation
        JOINT rFoot
        {
          OFFSET 0.73152 -45.1104 -5.12064
          CHANNELS 3 Zrotation Xrotation Yrotation
          End Site
          {
            OFFSET -1.1221 -3.69964 12.103
          }
        }
      }
    }
  }
  JOINT lButtock
  {
    OFFSET 8.77824 4.35084 1.2192
    CHANNELS 3 Zrotation Xrotation Yrotation
    JOINT lThigh
    {
      OFFSET 0 -1.70687 -2.19456
      CHANNELS 3 Zrotation Xrotation Yrotation
      JOINT lShin
      {
        OFFSET 0 -36.8199 0.73152
        CHANNELS 3 Zrotation Xrotation Yrotation
        JOINT lFoot
        {
          OFFSET -0.73152 -45.1104 -5.12064
          CHANNELS 3 Zrotation Xrotation Yrotation
          End Site
          {
            OFFSET 1.1221 -3.69964 12.103
          }
        }
      }
    }
  }
}
MOTION
Frames:	4
Frame Time:	0.03333
0.027233175933361053 61.7124080657959 -0.0013318844139575958 -6.336400643966679 5.390797665645203 2.746370827051114 -2.242703713031088 14.880811908849013 3.827343032080366 2.700848043119802 -9.750108700571541 1.215731517188486 -4.860750226616472 15.315567109898664 -3.464921668775265 8.634027615661132 -24.95955003869384 -5.120076287702577 0.06295070528968698 0.03720179925323804 0.029805598176400154 -0.0010617742508196384 -0.039410138150120684 -0.025585888630867765 0.03290221518103485 -0.023598543706232062 0.0009105862793136872 49.34408694173182 29.760056289283508 15.596584998015084 -23.795579936191533 -29.66406481068815 66.72384479428776 -4.626457235725287 -11.020266046552745 -5.044787966255173 0.020148844608126052 0.04370371245626706 -0.03642801352546965 0.026236677592723044 -0.0031207027596082478 -0.02312013697964027 0.03370442223307417 -0.010552962432787045 -0.0003448711922327532 7.688976175115134 5.404878527506007 0.44474509976273574 -0.0044395162388025065 -0.05776621818367706 -0.0267279442848615 2.9335848180972826 0.9948099022580699 0.083909434242562 0.0271930641590835 -0.01901167147217182 0.022946554125186744 10.20023438857466 0.7097568130852007 -0.0322734976019565 -0.007441384379023111 -0.057350110252835186 0.07430091888530112 2.211069051559939 -0.7342378118961131 -0.1819821195027917 -0.02733879264832807 0.05778361382171943 -0.04476345899467685 -58.34379690913991 32.110488307224976 -25.82520309145938 23.0809372433331 -27.854660614639855 -63.08645487255416 5.467968984869414 -14.268381289372527 4.327432407635774 -0.051413501925330514 -0.0074174253560751755 -0.040973557778966024 0.016967043671957924 -0.022426365850781515 0.014607960365658989 0.01947479031441042 0.02582425156073063 -0.00688237608413988 -7.708513931235956 5.432118602576487 -0.48066976036288717 -0.014652089790999618 -0.0064936422708309505 0.009440468691294772 -2.890165945873746 0.9479301518377469 -0.14526383627780973 -0.02237180437870075 0.01904182035405508 0.007380179480757449 -10.20938428074154 0.7664279598458543 -0.03802291605752051 0.0037095464413640054 -0.015221423410917206 -0.0005940130143795464 -2.2022572537569767 -0.7729288591926784 0.2250774115143987 -0.0356222646468197 0.029250872089961404 0.0840928888548003 -32.44689219932103 -35.801010270512116 -28.464229384854104 -5.6005344189229 62.166585485704346 6.655063119693624 -4.548127345663111 -10.12539856715977 -10.25436619906795 0.023034012563074642 0.006820437474146971 0.007707441591536263 38.02085248661752 -34.099422318059766 31.415069181785544 5.326505094987873 63.451105011962795 -6.428308523212017 4.97559217354742 -10.089706559878222 13.994901368778862
0.08270721882581711 62.814003229141235 -0.05273716524243355 -6.5843032136659385 5.440746412158683 3.009446235104733 -2.2776068334634996 14.98171258591032 3.774236176849401 2.791240687586455 -9.789448882643523 1.2513949230528845 -5.026869391854468 15.382431246778504 -3.5874006209719336 8.687467015727313 -24.93473937653377 -5.19603226014135 0.0536319260234095 0.05724717716760898 -0.009468256355437618 -0.003376781492630835 -0.012091089017362182 -0.07892262241608577 0.06557949435681547 -0.02976881920854522 0.014091037108440013 49.670508512355894 29.449706153776468 15.94584842877098 -23.917857397807687 -29.5194423852023 66.38822295885167 -4.646643432930436 -10.748170093039656 -5.056876974199272 0.08534822959948105 0.01896386014798173 -0.09033293367226809 0.0500708361448941 -0.0280844838870495 0.02377311373646407 0.02546913508474286 0.025525590867101246 -0.015218835409552005 7.846542662851805 5.457972576132278 0.4448821304329591 0.03234275998900866 -0.10042320414963966 -0.05906136612461428 3.001131333563889 0.9658376271810509 0.05557788960662844 0.06460254385177225 -0.022303022239324604 -0.05856289571733558 10.431934895789004 0.776874627459683 -0.029744299896641936 -0.03994246601855855 -0.029711322889555466 0.04114177786770403 2.2280881754243187 -0.7273373998436962 -0.1712308681406627 -0.01043476814363409 0.04709308711018011 -0.013608298147604154 -58.76136735423781 32.039782188937004 -25.89385332280718 23.29288655101506 -28.019268173637162 -63.2448811103526 5.588323321347386 -14.706686481243294 4.659009490422744 -0.0587491784547771 -0.00388376295594561 -0.04259044498240787 0.0498826857776014 -0.006898357659580651 -0.0024107366118971568 0.05847837212635667 0.027186020526501924 0.0026128675226472216 -7.80433807019665 5.505418912088595 -0.4884427290817733 0.0019243791182246472 0.03501971389597764 0.021463042373545262 -2.9236863798860533 0.9994027775880803 -0.1790459519126928 -0.03105692351690087 -0.009805697048905337 0.06832467678431185 -10.343837408326888 0.786549643779859 -0.007760695722721207 -0.023454462733320493 -0.027687158976425163 0.017760626276148783 -2.227319565699281 -0.7774761643543202 0.24900655238471525 0.002139610118359385 0.057248244384666795 0.12331535688530432 -32.62196019303221 -35.57770406578772 -28.18391159112761 -5.229249177622415 61.78339138269912 6.408270455734492 -4.525621018574272 -10.008835412557978 -10.2181849794871 -0.002360310605915422 -0.02656405976542086 -0.021945931411779876 38.32276050831043 -33.97804985650864 31.01781854946843 4.933672741290113 63.226664995836174 -6.158702173651396 4.961946736246204 -9.803350025151792 14.013963572978723
0.6542269140481949 69.0821886062622 -0.5867424421012402 8.62402907248988 4.844989991993491 15.444623534266055 -3.312703005715303 11.669106696947278 2.101213783053335 3.202838772585413 -8.388346564989419 0.7905225193601321 -6.2521284893265925 14.153921833035099 -5.851604488849752 9.542564011130596 -24.603809881057483 -10.184538613861973 0.07505294672530331 0.1688710377824233 -0.038393040273383805 0.18206413513368472 0.07882801362391052 0.1852045547284361 -0.008973141011784418 -0.01676531296760454 0.10597584111995591 35.737236794231706 31.840736816144492 40.605665861022565 -21.022820246395252 -18.928211256269318 48.68243627154893 -0.6806504955457203 -10.67838946538422 -2.2105318144930357 0.13479410343531897 -0.06604616836587791 -0.18548205784389432 0.2106835882513902 -0.035291774204441004 -0.09205440814737575 -0.12684792538794962 -0.01483847925014692 -0.26794861462429115 7.723822946486893 5.545283738066197 0.497017177811078 0.09902514980390267 -0.240811045752214 -0.20138735394545904 3.0512224468328815 1.0030312088629438 0.11604088525412339 -0.012844650981884994 0.027288580085757897 -0.1846359147996061 10.353515786380795 0.5771414866342629 -0.05966461056654392 -0.2512597143980261 -0.12650492182556805 0.03689273319329497 1.8930740133809516 -0.8502461737103997 -0.3547030894604279 -0.0783742329309278 0.06233983024579396 -0.01119542710159137 -40.508004401175135 40.60005144552481 -51.12133631471499 21.65652178249445 -20.190853686616215 -50.330888767353166 1.34877890646528 -7.3793372330554226 1.6542037285287998 0.18186835416442867 -0.2518947619082786 -0.08482134453803804 -0.038682883086073 0.11540044829772891 -0.16899163330995634 -0.07844696377341785 -0.04571152126798635 0.14576199986018432 -7.7022036902165105 5.54176064111494 -0.5729322758365367 0.22525654389755287 -0.03898303788358332 0.022689328133827007 -3.0793314500318343 1.0164185930795804 -0.03219923263494583 -0.1484750257037074 0.3267527280771192 0.39098430727959516 -10.093588668647728 0.7380109578040163 -0.05942339283105141 -0.07700290570238245 0.06737845546042708 -0.1333327631180536 -2.3648750932716944 -0.7413840040369447 0.16403120842523458 0.08542021339003064 0.09970144525343973 -0.20375001242890167 0.32138153134684466 -39.30546080533518 -0.3325721559716759 -6.022927831348475 57.715815656470596 6.647878614460417 -4.434496476649371 -10.091992111929239 -11.661567875650876 0.05828403190012865 -0.26705986293896966 0.00011365861665724343 -1.6784473782660543 -35.895003918775245 0.1417695408469003 3.9803221940157263 57.07337489332837 -5.637635579607586 6.559221051486359 -12.804431839844197 17.3333945284699
1.4342736452817917 74.02454614639282 -1.0107527486979961 0.6460042008982719 4.876013991864157 8.029935803387586 -5.1989449089355375 8.071317358247754 0.7507521954529991 3.330156060035389 -7.585526983719768 0.6129996062508596 -6.418651062612442 11.563844090327272 -5.4922814701068985 6.907862935027782 -19.849444973405838 -6.775608701468356 0.1619379955684637 0.6044454880065062 -0.0035534192559123563 0.4786773728376533 0.36000801201141214 -0.5820854763762944 0.19292314873822652 0.26464651164528086 0.1616624001034963 37.58218358717345 36.85464891225662 55.31523980473748 -20.473466423903833 -14.129846269984451 41.185152770584786 -1.5324752433671862 -16.83087019047538 -4.351937845717311 -0.004047954300290369 -0.11476185229075916 -0.26839116285774034 0.10816693112114162 -0.1622433797295573 0.2480145207686238 -0.043133391660570994 0.251114252713046 -0.025081415127638854 7.557459175099246 5.824191524615906 0.6933421076015147 0.1456487681303502 -0.23370095222836293 0.1141518310205124 3.2814918159726947 0.848748334569757 -0.17564458440709255 0.08681944167453122 -0.03955495950486611 0.0173261622119125 10.380071561873804 0.8984126677373295 -0.23900301997371756 -0.17318131403552448 -0.048190292967319186 -0.07785404465652257 2.122129529839207 -1.0319096755605808 -0.23134400335617963 -0.5324045479834727 -0.015171077446214806 0.010455151989438347 -43.562878224449626 45.5357578756403 -60.45489226837496 20.871222490219527 -16.232166543683327 -43.71028053692767 3.2154560529731304 -22.130200524076713 6.025517326817556 0.017701822616263203 -0.15957216211427408 -0.10990179917032486 -0.24959336168395455 -0.09871424279453488 -0.05488281113687386 -0.3695744923568084 0.19800147442741034 -0.21226605770471751 -8.019907378138715 5.248235822854581 -0.7091899607449426 0.07809270107107634 0.1463418722485478 0.4773724865410635 -3.1142273133882528 1.1731361096467594 -0.1784090367725891 -0.13428167916500935 0.20521890330685108 0.1859464039857494 -10.433872108192348 0.8194002923666815 -0.2628674074490512 -0.11917580868102702 0.3721542494702369 0.18876006839782442 -1.9804511293290439 -0.760901856559638 0.20068093629446518 0.12657375732579706 0.2313252203359621 -0.41311401346873067 2.3175563964754926 -39.1556303606072 -0.2183654166335389 -9.265352245929165 59.150653985982686 8.2205416236869 -1.612025389413267 -14.734553653056945 -5.471382371907128 -0.5863442594063559 -0.28422684972670914 -0.2658348044783044 -5.776466431564089 -34.70513373894025 -0.922939556881728 3.356823679876058 60.02574465263389 -2.82234494217987 6.4701131229139035 -21.42146765239763 13.078089345356283
